REM DIRINDEX 1\2,1\3,1\4,1\5,1\6
REM DIRNAME folder01,folder02,folder03,folder04,folder05,folder06
TITLE ""
FILE "CD1-06.mp3" MP3
  TRACK 01 AUDIO
    TITLE "6:cjc091_0142"
    INDEX 01 00:00:00
  TRACK 02 AUDIO
    TITLE "0:"
    INDEX 01 00:01:66
  TRACK 03 AUDIO
    TITLE "2:cjc091_0143"
    INDEX 01 00:03:10
  TRACK 04 AUDIO
    TITLE "0:"
    INDEX 01 00:05:32
  TRACK 05 AUDIO
    TITLE "3:cjc091_0144"
    INDEX 01 00:05:54
  TRACK 06 AUDIO
    TITLE "0:"
    INDEX 01 00:08:23
  TRACK 07 AUDIO
    TITLE "4:cjc091_0145"
    INDEX 01 00:08:50
  TRACK 08 AUDIO
    TITLE "0:"
    INDEX 01 00:13:41
  TRACK 09 AUDIO
    TITLE "2:cjc091_0146"
    INDEX 01 00:14:54
  TRACK 10 AUDIO
    TITLE "0:"
    INDEX 01 00:16:06
  TRACK 11 AUDIO
    TITLE "3:cjc091_0147"
    INDEX 01 00:16:22
  TRACK 12 AUDIO
    TITLE "0:"
    INDEX 01 00:18:11
  TRACK 13 AUDIO
    TITLE "4:cjc091_0148"
    INDEX 01 00:18:39
  TRACK 14 AUDIO
    TITLE "0:"
    INDEX 01 00:22:09
  TRACK 15 AUDIO
    TITLE "2:cjc091_0149"
    INDEX 01 00:23:28
  TRACK 16 AUDIO
    TITLE "0:"
    INDEX 01 00:24:59
  TRACK 17 AUDIO
    TITLE "3:cjc091_0150"
    INDEX 01 00:25:03
  TRACK 18 AUDIO
    TITLE "0:"
    INDEX 01 00:27:14
  TRACK 19 AUDIO
    TITLE "4:cjc091_0151"
    INDEX 01 00:27:38
  TRACK 20 AUDIO
    TITLE "0:"
    INDEX 01 00:31:59
  TRACK 21 AUDIO
    TITLE "2:cjc091_0152"
    INDEX 01 00:32:66
  TRACK 22 AUDIO
    TITLE "0:"
    INDEX 01 00:34:12
  TRACK 23 AUDIO
    TITLE "3:cjc091_0153"
    INDEX 01 00:34:30
  TRACK 24 AUDIO
    TITLE "0:"
    INDEX 01 00:35:74
  TRACK 25 AUDIO
    TITLE "4:cjc091_0154"
    INDEX 01 00:36:31
  TRACK 26 AUDIO
    TITLE "0:"
    INDEX 01 00:42:72
  TRACK 27 AUDIO
    TITLE "2:cjc091_0155"
    INDEX 01 00:44:09
  TRACK 28 AUDIO
    TITLE "0:"
    INDEX 01 00:45:32
  TRACK 29 AUDIO
    TITLE "3:cjc091_0156"
    INDEX 01 00:45:41
  TRACK 30 AUDIO
    TITLE "0:"
    INDEX 01 00:46:58
  TRACK 31 AUDIO
    TITLE "4:cjc091_0157"
    INDEX 01 00:47:21
  TRACK 32 AUDIO
    TITLE "0:"
    INDEX 01 00:51:71
  TRACK 33 AUDIO
    TITLE "2:cjc091_0158"
    INDEX 01 00:53:08
  TRACK 34 AUDIO
    TITLE "0:"
    INDEX 01 00:54:23
  TRACK 35 AUDIO
    TITLE "3:cjc091_0159"
    INDEX 01 00:54:38
  TRACK 36 AUDIO
    TITLE "0:"
    INDEX 01 00:55:51
  TRACK 37 AUDIO
    TITLE "4:cjc091_0160"
    INDEX 01 00:56:00
  TRACK 38 AUDIO
    TITLE "0:"
    INDEX 01 00:58:32
  TRACK 39 AUDIO
    TITLE "2:cjc091_0161"
    INDEX 01 00:59:45
  TRACK 40 AUDIO
    TITLE "0:"
    INDEX 01 01:00:68
  TRACK 41 AUDIO
    TITLE "3:cjc091_0162"
    INDEX 01 01:01:23
  TRACK 42 AUDIO
    TITLE "0:"
    INDEX 01 01:03:14
  TRACK 43 AUDIO
    TITLE "4:cjc091_0163"
    INDEX 01 01:03:39
  TRACK 44 AUDIO
    TITLE "0:"
    INDEX 01 01:06:71
  TRACK 45 AUDIO
    TITLE "2:cjc091_0164"
    INDEX 01 01:08:13
  TRACK 46 AUDIO
    TITLE "0:"
    INDEX 01 01:09:30
  TRACK 47 AUDIO
    TITLE "3:cjc091_0165"
    INDEX 01 01:09:50
  TRACK 48 AUDIO
    TITLE "0:"
    INDEX 01 01:11:35
  TRACK 49 AUDIO
    TITLE "4:cjc091_0166"
    INDEX 01 01:11:62
  TRACK 50 AUDIO
    TITLE "0:"
    INDEX 01 01:14:29
  TRACK 51 AUDIO
    TITLE "2:cjc091_0167"
    INDEX 01 01:15:44
  TRACK 52 AUDIO
    TITLE "0:"
    INDEX 01 01:17:08
  TRACK 53 AUDIO
    TITLE "3:cjc091_0168"
    INDEX 01 01:17:28
  TRACK 54 AUDIO
    TITLE "0:"
    INDEX 01 01:19:15
  TRACK 55 AUDIO
    TITLE "4:cjc091_0169"
    INDEX 01 01:19:42
  TRACK 56 AUDIO
    TITLE "0:"
    INDEX 01 01:24:08
  TRACK 57 AUDIO
    TITLE "2:cjc091_0170"
    INDEX 01 01:25:25
  TRACK 58 AUDIO
    TITLE "0:"
    INDEX 01 01:26:38
  TRACK 59 AUDIO
    TITLE "3:cjc091_0171"
    INDEX 01 01:26:40
  TRACK 60 AUDIO
    TITLE "0:"
    INDEX 01 01:27:55
  TRACK 61 AUDIO
    TITLE "4:cjc091_0172"
    INDEX 01 01:28:10
  TRACK 62 AUDIO
    TITLE "0:"
    INDEX 01 01:31:43
  TRACK 63 AUDIO
    TITLE "2:cjc091_0173"
    INDEX 01 01:32:51
  TRACK 64 AUDIO
    TITLE "0:"
    INDEX 01 01:34:24
  TRACK 65 AUDIO
    TITLE "3:cjc091_0174"
    INDEX 01 01:34:30
  TRACK 66 AUDIO
    TITLE "0:"
    INDEX 01 01:36:01
  TRACK 67 AUDIO
    TITLE "4:cjc091_0175"
    INDEX 01 01:36:39
  TRACK 68 AUDIO
    TITLE "0:"
    INDEX 01 01:40:74
  TRACK 69 AUDIO
    TITLE "2:cjc091_0176"
    INDEX 01 01:42:12
  TRACK 70 AUDIO
    TITLE "0:"
    INDEX 01 01:43:41
  TRACK 71 AUDIO
    TITLE "3:cjc091_0177"
    INDEX 01 01:43:56
  TRACK 72 AUDIO
    TITLE "0:"
    INDEX 01 01:45:51
  TRACK 73 AUDIO
    TITLE "4:cjc091_0178"
    INDEX 01 01:46:14
  TRACK 74 AUDIO
    TITLE "0:"
    INDEX 01 01:49:32
  TRACK 75 AUDIO
    TITLE "2:cjc091_0179"
    INDEX 01 01:50:45
  TRACK 76 AUDIO
    TITLE "0:"
    INDEX 01 01:51:72
  TRACK 77 AUDIO
    TITLE "3:cjc091_0180"
    INDEX 01 01:52:08
  TRACK 78 AUDIO
    TITLE "0:"
    INDEX 01 01:53:29
  TRACK 79 AUDIO
    TITLE "4:cjc091_0181"
    INDEX 01 01:54:01
  TRACK 80 AUDIO
    TITLE "0:"
    INDEX 01 01:57:62
  TRACK 81 AUDIO
    TITLE "2:cjc091_0182"
    INDEX 01 01:59:16
  TRACK 82 AUDIO
    TITLE "0:"
    INDEX 01 02:00:22
  TRACK 83 AUDIO
    TITLE "3:cjc091_0183"
    INDEX 01 02:00:33
  TRACK 84 AUDIO
    TITLE "0:"
    INDEX 01 02:01:54
  TRACK 85 AUDIO
    TITLE "4:cjc091_0184"
    INDEX 01 02:02:09
  TRACK 86 AUDIO
    TITLE "0:"
    INDEX 01 02:05:23
  TRACK 87 AUDIO
    TITLE "2:cjc091_0185"
    INDEX 01 02:06:40
  TRACK 88 AUDIO
    TITLE "0:"
    INDEX 01 02:07:51
  TRACK 89 AUDIO
    TITLE "3:cjc091_0186"
    INDEX 01 02:07:61
  TRACK 90 AUDIO
    TITLE "0:"
    INDEX 01 02:09:19
  TRACK 91 AUDIO
    TITLE "4:cjc091_0187"
    INDEX 01 02:09:54
  TRACK 92 AUDIO
    TITLE "0:"
    INDEX 01 02:12:36
